<svg xmlns="http://www.w3.org/2000/svg" viewBox="0 0 100 100">
  <defs>
    <linearGradient id="fire" x1="0%" y1="100%" x2="100%" y2="0%">
      <stop offset="0%" style="stop-color:#ff4d00"/>
      <stop offset="100%" style="stop-color:#ff8f5c"/>
    </linearGradient>
  </defs>
  <rect width="100" height="100" rx="20" fill="#12121a"/>
  <path d="M50 15 C50 15, 30 40, 30 55 C30 70, 40 80, 50 85 C60 80, 70 70, 70 55 C70 40, 50 15, 50 15 Z" fill="url(#fire)"/>
  <path d="M50 35 C50 35, 40 50, 40 58 C40 66, 44 72, 50 75 C56 72, 60 66, 60 58 C60 50, 50 35, 50 35 Z" fill="#ff4d00" opacity="0.8"/>
  <circle cx="50" cy="60" r="8" fill="#ffaa00" opacity="0.6"/>
</svg>
